<svg width="16" height="17" viewBox="0 0 16 17" fill="none" xmlns="http://www.w3.org/2000/svg">
<path fill-rule="evenodd" clip-rule="evenodd" d="M1.33333 8.6276C1.33333 4.9457 4.31809 1.96094 8 1.96094C11.6819 1.96094 14.6667 4.9457 14.6667 8.6276C14.6667 12.3095 11.6819 15.2943 8 15.2943C4.31809 15.2943 1.33333 12.3095 1.33333 8.6276ZM8 3.29427C5.05447 3.29427 2.66666 5.68208 2.66666 8.6276C2.66666 11.5731 5.05447 13.9609 8 13.9609C10.9455 13.9609 13.3333 11.5731 13.3333 8.6276C13.3333 5.68208 10.9455 3.29427 8 3.29427Z" fill="#2EA4AB"/>
<path fill-rule="evenodd" clip-rule="evenodd" d="M8.66667 5.29411C8.66667 4.92592 8.3682 4.62744 8 4.62744C7.6318 4.62744 7.33333 4.92592 7.33333 5.29411V7.96077H4.66667C4.29848 7.96077 4 8.25924 4 8.62744C4 8.99564 4.29848 9.29411 4.66667 9.29411H7.33333V11.9608C7.33333 12.329 7.6318 12.6274 8 12.6274C8.3682 12.6274 8.66667 12.329 8.66667 11.9608V9.29411H11.3333C11.7015 9.29411 12 8.99564 12 8.62744C12 8.25924 11.7015 7.96077 11.3333 7.96077H8.66667V5.29411Z" fill="#2EA4AB"/>
</svg>
