<svg width="8" height="14" viewBox="0 0 8 14" fill="none" xmlns="http://www.w3.org/2000/svg">
<path d="M1.35355 0.170617C1.15829 -0.0246456 0.841709 -0.0246456 0.646447 0.170617C0.451184 0.365879 0.451184 0.682461 0.646447 0.877723L1.35355 0.170617ZM7 6.52417L7.35355 6.87772L7.70711 6.52417L7.35355 6.17062L7 6.52417ZM0.646447 12.1706C0.451184 12.3659 0.451184 12.6825 0.646447 12.8777C0.841709 13.073 1.15829 13.073 1.35355 12.8777L0.646447 12.1706ZM0.646447 0.877723L6.64645 6.87772L7.35355 6.17062L1.35355 0.170617L0.646447 0.877723ZM6.64645 6.17062L0.646447 12.1706L1.35355 12.8777L7.35355 6.87772L6.64645 6.17062Z" fill="#2C3939"/>
</svg>
