<svg width="23" height="23" viewBox="0 0 23 23" fill="none" xmlns="http://www.w3.org/2000/svg">
<g clip-path="url(#clip0_526_2095)">
<path d="M3.91669 8.37719C3.91669 7.87093 4.3271 7.46053 4.83335 7.46053H8.50002C9.00628 7.46053 9.41669 7.87093 9.41669 8.37719C9.41669 8.88345 9.00628 9.29386 8.50002 9.29386H4.83335C4.3271 9.29386 3.91669 8.88345 3.91669 8.37719Z" fill="#2EA4AB"/>
<path fill-rule="evenodd" clip-rule="evenodd" d="M3.91667 2.8772C1.89162 2.8772 0.25 4.51882 0.25 6.54386V15.7105C0.25 17.7355 1.89162 19.3772 3.91667 19.3772H18.5833C20.6083 19.3772 22.25 17.7355 22.25 15.7105V6.54386C22.25 4.51882 20.6083 2.8772 18.5833 2.8772H3.91667ZM18.5833 4.71053H3.91667C2.90414 4.71053 2.08333 5.53134 2.08333 6.54386V12.9605H20.4167V6.54386C20.4167 5.53134 19.5959 4.71053 18.5833 4.71053ZM20.4167 14.7939H2.08333V15.7105C2.08333 16.7231 2.90414 17.5439 3.91667 17.5439H18.5833C19.5959 17.5439 20.4167 16.7231 20.4167 15.7105V14.7939Z" fill="#2EA4AB"/>
</g>
<defs>
<clipPath id="clip0_526_2095">
<rect width="22" height="22" fill="white" transform="translate(0.25 0.127197)"/>
</clipPath>
</defs>
</svg>
