<svg width="16" height="17" viewBox="0 0 16 17" fill="none" xmlns="http://www.w3.org/2000/svg">
<path d="M3.32836 7.97121C2.96018 7.97121 2.6617 7.67275 2.6617 7.30455C2.6617 7.06628 2.78669 6.85721 2.97468 6.73933L4.76642 4.94758C5.02677 4.68723 5.44888 4.68723 5.70923 4.94758C5.96958 5.20793 5.96958 5.63004 5.70923 5.89039L4.96175 6.63788L9.99506 6.63787C10.3632 6.63787 10.6617 6.93635 10.6617 7.30455C10.6617 7.67275 10.3632 7.97121 9.99506 7.97121H3.36133C3.35525 7.97128 3.34917 7.97128 3.34309 7.97121H3.32836Z" fill="#2C3939"/>
<path d="M3.32836 7.97121C2.96018 7.97121 2.6617 7.67275 2.6617 7.30455C2.6617 7.06628 2.78669 6.85721 2.97468 6.73933L4.76642 4.94758C5.02677 4.68723 5.44888 4.68723 5.70923 4.94758C5.96958 5.20793 5.96958 5.63004 5.70923 5.89039L4.96175 6.63788L9.99506 6.63787C10.3632 6.63787 10.6617 6.93635 10.6617 7.30455C10.6617 7.67275 10.3632 7.97121 9.99506 7.97121H3.36133C3.35525 7.97128 3.34917 7.97128 3.34309 7.97121H3.32836Z" fill="white" fill-opacity="0.2"/>
<path d="M12.6716 9.28331C13.0398 9.28331 13.3383 9.58178 13.3383 9.94998C13.3383 10.1882 13.2133 10.3973 13.0253 10.5152L11.2336 12.3069C10.9732 12.5673 10.5511 12.5673 10.2907 12.3069C10.0304 12.0466 10.0304 11.6244 10.2907 11.3641L11.0383 10.6166H6.00497C5.63678 10.6166 5.3383 10.3182 5.3383 9.94998C5.3383 9.58178 5.63678 9.28331 6.00497 9.28331H12.6387C12.6447 9.28325 12.6508 9.28325 12.6569 9.28331H12.6716Z" fill="#2C3939"/>
<path d="M12.6716 9.28331C13.0398 9.28331 13.3383 9.58178 13.3383 9.94998C13.3383 10.1882 13.2133 10.3973 13.0253 10.5152L11.2336 12.3069C10.9732 12.5673 10.5511 12.5673 10.2907 12.3069C10.0304 12.0466 10.0304 11.6244 10.2907 11.3641L11.0383 10.6166H6.00497C5.63678 10.6166 5.3383 10.3182 5.3383 9.94998C5.3383 9.58178 5.63678 9.28331 6.00497 9.28331H12.6387C12.6447 9.28325 12.6508 9.28325 12.6569 9.28331H12.6716Z" fill="white" fill-opacity="0.2"/>
</svg>
