<svg width="18" height="18" viewBox="0 0 18 18" fill="none" xmlns="http://www.w3.org/2000/svg">
<g opacity="0.6" filter="url(#filter0_b_797_2673)">
<path d="M7.68195 12.2351L4.5 9.05304L5.56066 7.99239L7.68195 10.1138L11.9246 5.87109L12.9853 6.93176L7.68195 12.2351Z" fill="#2EA4AB"/>
<path fill-rule="evenodd" clip-rule="evenodd" d="M0.75 9C0.75 4.44365 4.44365 0.75 9 0.75C13.5563 0.75 17.25 4.44365 17.25 9C17.25 13.5563 13.5563 17.25 9 17.25C4.44365 17.25 0.75 13.5563 0.75 9ZM9 15.75C5.27208 15.75 2.25 12.7279 2.25 9C2.25 5.27208 5.27208 2.25 9 2.25C12.728 2.25 15.75 5.27208 15.75 9C15.75 12.7279 12.728 15.75 9 15.75Z" fill="#2EA4AB"/>
</g>
<defs>
<filter id="filter0_b_797_2673" x="-4" y="-4" width="26" height="26" filterUnits="userSpaceOnUse" color-interpolation-filters="sRGB">
<feFlood flood-opacity="0" result="BackgroundImageFix"/>
<feGaussianBlur in="BackgroundImage" stdDeviation="2"/>
<feComposite in2="SourceAlpha" operator="in" result="effect1_backgroundBlur_797_2673"/>
<feBlend mode="normal" in="SourceGraphic" in2="effect1_backgroundBlur_797_2673" result="shape"/>
</filter>
</defs>
</svg>
