<svg width="26" height="26" viewBox="0 0 26 26" fill="none" xmlns="http://www.w3.org/2000/svg">
<g opacity="0.6" filter="url(#filter0_d_526_3570)">
<path d="M11.682 12.2351L8.5 9.05304L9.56066 7.99239L11.682 10.1138L15.9246 5.87109L16.9853 6.93176L11.682 12.2351Z" fill="#2EA4AB"/>
<path fill-rule="evenodd" clip-rule="evenodd" d="M4.75 9C4.75 4.44365 8.44365 0.75 13 0.75C17.5563 0.75 21.25 4.44365 21.25 9C21.25 13.5563 17.5563 17.25 13 17.25C8.44365 17.25 4.75 13.5563 4.75 9ZM13 15.75C9.27208 15.75 6.25 12.7279 6.25 9C6.25 5.27208 9.27208 2.25 13 2.25C16.728 2.25 19.75 5.27208 19.75 9C19.75 12.7279 16.728 15.75 13 15.75Z" fill="#2EA4AB"/>
</g>
<defs>
<filter id="filter0_d_526_3570" x="0" y="0" width="26" height="26" filterUnits="userSpaceOnUse" color-interpolation-filters="sRGB">
<feFlood flood-opacity="0" result="BackgroundImageFix"/>
<feColorMatrix in="SourceAlpha" type="matrix" values="0 0 0 0 0 0 0 0 0 0 0 0 0 0 0 0 0 0 127 0" result="hardAlpha"/>
<feOffset dy="4"/>
<feGaussianBlur stdDeviation="2"/>
<feComposite in2="hardAlpha" operator="out"/>
<feColorMatrix type="matrix" values="0 0 0 0 0 0 0 0 0 0 0 0 0 0 0 0 0 0 0.25 0"/>
<feBlend mode="normal" in2="BackgroundImageFix" result="effect1_dropShadow_526_3570"/>
<feBlend mode="normal" in="SourceGraphic" in2="effect1_dropShadow_526_3570" result="shape"/>
</filter>
</defs>
</svg>
