<svg width="28" height="29" viewBox="0 0 28 29" fill="none" xmlns="http://www.w3.org/2000/svg">
<rect y="0.127197" width="28" height="28" rx="14" fill="#2C3939"/>
<rect y="0.127197" width="28" height="28" rx="14" fill="white" fill-opacity="0.95"/>
<path d="M12.3619 16.1631C12.3656 15.5222 12.4263 15.0029 12.5442 14.6051C12.6657 14.2073 12.8333 13.8887 13.047 13.6493C13.2643 13.4099 13.5534 13.176 13.9144 12.9476C14.1648 12.7929 14.3748 12.6327 14.5442 12.467C14.7173 12.3012 14.8517 12.1152 14.9475 11.909C15.047 11.699 15.0967 11.4707 15.0967 11.2239C15.0967 10.9366 15.0304 10.6843 14.8978 10.467C14.7652 10.2497 14.581 10.0821 14.3453 9.96421C14.1096 9.84635 13.8499 9.78742 13.5663 9.78742C13.2974 9.78742 13.0451 9.84451 12.8094 9.95869C12.5773 10.0729 12.3858 10.246 12.2348 10.478C12.0838 10.7101 11.9991 10.9918 11.9807 11.3233H10.0249C10.0433 10.6456 10.2109 10.0692 10.5276 9.59405C10.8444 9.11891 11.268 8.76163 11.7983 8.52222C12.3287 8.27913 12.9217 8.15758 13.5773 8.15758C14.2772 8.15758 14.8959 8.28097 15.4337 8.52775C15.9751 8.77084 16.3932 9.12259 16.6878 9.583C16.9862 10.0434 17.1354 10.5793 17.1354 11.1907C17.1354 11.6033 17.0691 11.9771 16.9365 12.3123C16.8076 12.6438 16.6215 12.9384 16.3785 13.1963C16.1354 13.4541 15.8389 13.688 15.489 13.8979C15.1722 14.0894 14.9217 14.2828 14.7376 14.478C14.5534 14.6732 14.4171 14.9053 14.3287 15.1742C14.2403 15.4394 14.1943 15.769 14.1906 16.1631V16.3068H12.3619V16.1631ZM13.3232 19.7487C13.1059 19.7487 12.9033 19.6935 12.7155 19.583C12.5276 19.4725 12.3785 19.327 12.268 19.1465C12.1611 18.9624 12.1096 18.7598 12.1133 18.5388C12.1096 18.3215 12.1611 18.1208 12.268 17.9366C12.3785 17.7487 12.5276 17.6033 12.7155 17.5001C12.9033 17.3933 13.1059 17.3399 13.3232 17.3399C13.5368 17.3399 13.7376 17.3933 13.9254 17.5001C14.1133 17.6033 14.2606 17.7487 14.3674 17.9366C14.4779 18.1244 14.5331 18.3252 14.5331 18.5388C14.5331 18.7561 14.4779 18.9568 14.3674 19.141C14.2606 19.3252 14.1133 19.4725 13.9254 19.583C13.7376 19.6935 13.5368 19.7487 13.3232 19.7487Z" fill="#2C3939"/>
<path d="M12.3619 16.1631C12.3656 15.5222 12.4263 15.0029 12.5442 14.6051C12.6657 14.2073 12.8333 13.8887 13.047 13.6493C13.2643 13.4099 13.5534 13.176 13.9144 12.9476C14.1648 12.7929 14.3748 12.6327 14.5442 12.467C14.7173 12.3012 14.8517 12.1152 14.9475 11.909C15.047 11.699 15.0967 11.4707 15.0967 11.2239C15.0967 10.9366 15.0304 10.6843 14.8978 10.467C14.7652 10.2497 14.581 10.0821 14.3453 9.96421C14.1096 9.84635 13.8499 9.78742 13.5663 9.78742C13.2974 9.78742 13.0451 9.84451 12.8094 9.95869C12.5773 10.0729 12.3858 10.246 12.2348 10.478C12.0838 10.7101 11.9991 10.9918 11.9807 11.3233H10.0249C10.0433 10.6456 10.2109 10.0692 10.5276 9.59405C10.8444 9.11891 11.268 8.76163 11.7983 8.52222C12.3287 8.27913 12.9217 8.15758 13.5773 8.15758C14.2772 8.15758 14.8959 8.28097 15.4337 8.52775C15.9751 8.77084 16.3932 9.12259 16.6878 9.583C16.9862 10.0434 17.1354 10.5793 17.1354 11.1907C17.1354 11.6033 17.0691 11.9771 16.9365 12.3123C16.8076 12.6438 16.6215 12.9384 16.3785 13.1963C16.1354 13.4541 15.8389 13.688 15.489 13.8979C15.1722 14.0894 14.9217 14.2828 14.7376 14.478C14.5534 14.6732 14.4171 14.9053 14.3287 15.1742C14.2403 15.4394 14.1943 15.769 14.1906 16.1631V16.3068H12.3619V16.1631ZM13.3232 19.7487C13.1059 19.7487 12.9033 19.6935 12.7155 19.583C12.5276 19.4725 12.3785 19.327 12.268 19.1465C12.1611 18.9624 12.1096 18.7598 12.1133 18.5388C12.1096 18.3215 12.1611 18.1208 12.268 17.9366C12.3785 17.7487 12.5276 17.6033 12.7155 17.5001C12.9033 17.3933 13.1059 17.3399 13.3232 17.3399C13.5368 17.3399 13.7376 17.3933 13.9254 17.5001C14.1133 17.6033 14.2606 17.7487 14.3674 17.9366C14.4779 18.1244 14.5331 18.3252 14.5331 18.5388C14.5331 18.7561 14.4779 18.9568 14.3674 19.141C14.2606 19.3252 14.1133 19.4725 13.9254 19.583C13.7376 19.6935 13.5368 19.7487 13.3232 19.7487Z" fill="white" fill-opacity="0.4"/>
</svg>
