<svg width="43" height="37" viewBox="0 0 43 37" fill="none" xmlns="http://www.w3.org/2000/svg">
<path d="M23.4 11C22.6268 11 22 11.6716 22 12.5C22 13.3284 22.6268 14 23.4 14H27.6C28.3732 14 29 13.3284 29 12.5C29 11.6716 28.3732 11 27.6 11H23.4Z" fill="#2EA4AB"/>
<path d="M22 17.5C22 16.6716 22.6268 16 23.4 16H27.6C28.3732 16 29 16.6716 29 17.5C29 18.3284 28.3732 19 27.6 19H23.4C22.6268 19 22 18.3284 22 17.5Z" fill="#2EA4AB"/>
<path d="M23.4 22C22.6268 22 22 22.4477 22 23C22 23.5523 22.6268 24 23.4 24H27.6C28.3732 24 29 23.5523 29 23C29 22.4477 28.3732 22 27.6 22H23.4Z" fill="#2EA4AB"/>
<path fill-rule="evenodd" clip-rule="evenodd" d="M6.875 6C4.7349 6 3 7.79087 3 10V26C3 28.2092 4.7349 30 6.875 30H30.125C32.2652 30 34 28.2092 34 26V10C34 7.79087 32.2652 6 30.125 6H6.875ZM30.125 8.66667H19.7917V27.3333H30.125C30.8384 27.3333 31.4167 26.7364 31.4167 26V10C31.4167 9.26363 30.8384 8.66667 30.125 8.66667ZM6.875 8.66667H17.2083V27.3333H6.875C6.16164 27.3333 5.58333 26.7364 5.58333 26V10C5.58333 9.26363 6.16164 8.66667 6.875 8.66667Z" fill="#2EA4AB"/>
<rect x="28" y="21.5" width="15" height="15" rx="7.5" fill="#2EA4AB"/>
<path d="M35.1561 33.0967C34.6565 33.0967 34.2099 33.0127 33.8163 32.8446C33.4227 32.6743 33.113 32.436 32.8874 32.1298C32.6641 31.8237 32.5467 31.4738 32.5352 31.0801H33.8198C33.8313 31.2689 33.8957 31.4346 34.0131 31.5773C34.1328 31.7201 34.2917 31.8306 34.4896 31.9088C34.6876 31.9871 34.9086 32.0262 35.1526 32.0262C35.4105 32.0262 35.6407 31.9814 35.8432 31.8916C36.0481 31.8018 36.207 31.6775 36.3198 31.5186C36.4349 31.3598 36.4924 31.1779 36.4924 30.9731C36.4924 30.759 36.4337 30.5691 36.3163 30.4033C36.2012 30.2376 36.032 30.1087 35.8087 30.0166C35.5877 29.9245 35.3264 29.8785 35.0249 29.8785H34.3964V28.8978H35.0249C35.2735 28.8978 35.4945 28.8541 35.6878 28.7666C35.8835 28.6791 36.0343 28.5582 36.1402 28.404C36.2484 28.2475 36.3025 28.0668 36.3025 27.8619C36.3025 27.6662 36.2553 27.4936 36.1609 27.3439C36.0688 27.192 35.9365 27.0746 35.7638 26.9917C35.5935 26.9088 35.3955 26.8674 35.1699 26.8674C34.9443 26.8674 34.7371 26.9077 34.5483 26.9883C34.3596 27.0665 34.2065 27.1793 34.0891 27.3267C33.974 27.4717 33.9118 27.6397 33.9026 27.8308H32.6837C32.6929 27.4441 32.808 27.0988 33.029 26.7949C33.25 26.4887 33.5481 26.2516 33.9233 26.0836C34.2986 25.9155 34.7164 25.8315 35.1768 25.8315C35.6418 25.8315 36.0527 25.919 36.4095 26.0939C36.7686 26.2689 37.0449 26.506 37.2383 26.8052C37.4339 27.1022 37.5306 27.4302 37.5283 27.7894C37.5306 28.0518 37.4788 28.2889 37.3729 28.5007C37.267 28.7125 37.1151 28.8886 36.9171 29.029C36.7215 29.1694 36.4936 29.2661 36.2334 29.3191V29.3743C36.5626 29.4203 36.8458 29.517 37.0829 29.6644C37.32 29.8117 37.4984 30.0039 37.6181 30.241C37.7378 30.4758 37.7965 30.7417 37.7942 31.0387C37.7965 31.43 37.6837 31.7822 37.4558 32.0953C37.2302 32.4084 36.916 32.6535 36.5131 32.8308C36.1103 33.0081 35.6579 33.0967 35.1561 33.0967Z" fill="white"/>
</svg>
