<svg width="24" height="25" viewBox="0 0 24 25" fill="none" xmlns="http://www.w3.org/2000/svg">
<g opacity="0.3">
<path d="M8 11.1273C7.44772 11.1273 7 11.575 7 12.1273C7 12.6796 7.44772 13.1273 8 13.1273H16C16.5523 13.1273 17 12.6796 17 12.1273C17 11.575 16.5523 11.1273 16 11.1273H8Z" fill="white"/>
<path fill-rule="evenodd" clip-rule="evenodd" d="M23 12.1273C23 18.2024 18.0751 23.1273 12 23.1273C5.92487 23.1273 1 18.2024 1 12.1273C1 6.05213 5.92487 1.12726 12 1.12726C18.0751 1.12726 23 6.05213 23 12.1273ZM21 12.1273C21 17.0979 16.9706 21.1273 12 21.1273C7.02944 21.1273 3 17.0979 3 12.1273C3 7.1567 7.02944 3.12726 12 3.12726C16.9706 3.12726 21 7.1567 21 12.1273Z" fill="white"/>
</g>
</svg>
