<svg width="16" height="17" viewBox="0 0 16 17" fill="none" xmlns="http://www.w3.org/2000/svg">
<path d="M5.33333 7.96057C4.96514 7.96057 4.66666 8.25904 4.66666 8.62724C4.66666 8.99544 4.96514 9.2939 5.33333 9.2939H10.6667C11.0349 9.2939 11.3333 8.99544 11.3333 8.62724C11.3333 8.25904 11.0349 7.96057 10.6667 7.96057H5.33333Z" fill="#2C3939"/>
<path fill-rule="evenodd" clip-rule="evenodd" d="M0.666664 3.96061C0.666664 2.48785 1.86057 1.29395 3.33333 1.29395H12.6667C14.1394 1.29395 15.3333 2.48785 15.3333 3.96061V13.2939C15.3333 14.7667 14.1394 15.9606 12.6667 15.9606H3.33333C1.86057 15.9606 0.666664 14.7667 0.666664 13.2939V3.96061ZM3.33333 2.62728H12.6667C13.4031 2.62728 14 3.22423 14 3.96061V13.2939C14 14.0303 13.4031 14.6273 12.6667 14.6273H3.33333C2.59695 14.6273 2 14.0303 2 13.2939V3.96061C2 3.22423 2.59695 2.62728 3.33333 2.62728Z" fill="#2C3939"/>
</svg>
