<svg width="22" height="16" viewBox="0 0 22 16" fill="none" xmlns="http://www.w3.org/2000/svg">
<path fill-rule="evenodd" clip-rule="evenodd" d="M3.24999 0C1.82326 0 0.666656 1.19391 0.666656 2.66667V13.3333C0.666656 14.8061 1.82326 16 3.24999 16H18.75C20.1768 16 21.3333 14.8061 21.3333 13.3333V2.66667C21.3333 1.19391 20.1768 0 18.75 0H3.24999ZM18.75 1.77778H11.8611V14.2222H18.75C19.2256 14.2222 19.6111 13.8243 19.6111 13.3333V2.66667C19.6111 2.17575 19.2256 1.77778 18.75 1.77778ZM3.24999 1.77778H10.1389V14.2222H3.24999C2.77442 14.2222 2.38888 13.8243 2.38888 13.3333V2.66667C2.38888 2.17575 2.77442 1.77778 3.24999 1.77778Z" fill="#2EA4AB"/>
</svg>
