<svg width="64" height="65" viewBox="0 0 64 65" fill="none" xmlns="http://www.w3.org/2000/svg">
<path fill-rule="evenodd" clip-rule="evenodd" d="M6.84602 7.40974H15.9957V4.38574H3.82202V16.5435H6.84602V7.40974ZM48.0072 4.38574V7.40974H57.1569V16.5435H60.1763V4.38574H48.0072ZM6.84602 48.5846H3.82202V60.7423H15.9957V57.7183H6.84602V48.5846ZM57.1546 57.7183H48.0049V60.7423H60.1786V48.5846H57.1546V57.7183Z" fill="#222222"/>
<path fill-rule="evenodd" clip-rule="evenodd" d="M6.84602 7.40974H15.9957V4.38574H3.82202V16.5435H6.84602V7.40974ZM48.0072 4.38574V7.40974H57.1569V16.5435H60.1763V4.38574H48.0072ZM6.84602 48.5846H3.82202V60.7423H15.9957V57.7183H6.84602V48.5846ZM57.1546 57.7183H48.0049V60.7423H60.1786V48.5846H57.1546V57.7183Z" fill="url(#paint0_linear_1098_3264)"/>
<path d="M50.0799 41.1765C51.8628 40.5411 53.2891 39.172 53.9999 37.4165L55.6525 32.244C56.0685 30.8954 55.9359 29.4394 55.2799 28.1914C54.6148 26.9845 53.4879 26.1 52.1599 25.7365L51.5199 25.524C50.9668 15.1514 42.3862 7.03025 31.9999 7.04396C21.6228 7.05539 13.0605 15.1628 12.4799 25.524L11.9199 25.7114C10.5599 26.0657 9.40336 26.9617 8.71994 28.1914C8.06394 29.4394 7.93136 30.8977 8.34736 32.244L9.99994 37.4165C10.7222 39.1903 12.1691 40.5685 13.9725 41.204L14.8274 41.4965C16.0822 45.3937 18.1554 48.9754 20.9074 52.004L22.6125 53.8965C24.0617 55.5057 25.8994 56.7171 27.9474 57.4165C29.2639 57.8508 30.6399 58.0748 32.0274 58.084C33.4148 58.084 34.7931 57.8485 36.1074 57.3914C38.1554 56.7034 39.9931 55.5011 41.4399 53.8965L43.1474 52.004C45.8902 48.9685 47.9611 45.3891 49.2274 41.4965L50.0799 41.1765V41.1765ZM52.6125 29.6565C52.9028 30.1594 52.9622 30.7628 52.7725 31.3114L51.1199 36.644C50.9005 37.1148 50.5599 37.5194 50.1325 37.8165C50.1485 37.748 50.1485 37.6748 50.1325 37.604L51.3325 29.604V28.884C51.8468 28.9571 52.3085 29.2383 52.6125 29.6565ZM48.5074 25.924C48.5691 26.948 48.5234 27.9765 48.3725 28.9914L48.1074 30.884C46.0297 30.1891 43.8971 29.6725 41.7325 29.3365C41.6639 26.532 41.4125 23.7365 40.9874 20.964C43.8582 21.7137 46.4114 23.3685 48.2674 25.684L48.5074 25.924V25.924ZM38.7199 28.964C37.0399 28.7765 35.3074 28.6714 33.3874 28.644V19.684C34.8457 19.748 36.2971 19.908 37.7325 20.164C38.2742 23.0691 38.6034 26.0108 38.7199 28.964ZM33.4925 16.564V11.9514C35.3439 13.0348 36.6468 14.8588 37.0674 16.964C35.9474 16.804 34.6674 16.724 33.4925 16.564V16.564ZM33.4925 54.2714V44.084C35.0399 44.084 36.5074 44.084 37.9725 43.844C36.9325 49.6314 35.0925 53.044 33.4925 54.3765V54.2714V54.2714ZM33.4925 40.9365V31.6565C35.3325 31.6565 37.1199 31.8165 38.8274 32.004V33.364C38.8411 35.8417 38.7085 38.3171 38.4274 40.7765C36.8525 40.9365 35.1999 41.0165 33.4925 41.0714V40.9365V40.9365ZM41.7874 32.564C43.7988 32.8725 45.7737 33.3914 47.6799 34.1114L47.4125 35.8965L47.1999 37.0965C47.0605 37.828 46.8799 38.548 46.6674 39.2565C44.9691 39.8051 43.2297 40.2165 41.4674 40.484C41.6799 38.2965 41.8125 35.9514 41.8125 33.4965C41.8125 33.044 41.7874 32.724 41.7874 32.564ZM44.6925 16.0314C45.8445 17.4714 46.7474 19.0943 47.3599 20.8314C45.1771 19.3503 42.7474 18.2668 40.1874 17.6314C39.7142 15.1583 38.6217 12.8474 37.0125 10.9114C40.0205 11.8257 42.6925 13.6085 44.6925 16.0314V16.0314ZM12.8799 36.5114L11.2274 31.1765C11.0377 30.628 11.0971 30.0268 11.3874 29.524C11.6479 29.0714 12.0639 28.7285 12.5599 28.564C12.5462 28.804 12.5462 29.044 12.5599 29.284L13.5474 36.164L13.7325 37.3365C13.7462 37.4165 13.7462 37.4965 13.7325 37.5765C13.3759 37.2863 13.0834 36.9228 12.8799 36.5114V36.5114ZM24.8525 51.8714L23.1474 49.9765C19.8468 46.324 17.6457 41.8143 16.7999 36.964L15.6274 28.964C14.9874 24.4817 16.2148 19.9308 19.0217 16.3788C21.8285 12.8245 25.9702 10.5754 30.4799 10.164V54.9365C29.9451 54.8451 29.4194 54.7103 28.9074 54.5365C27.3508 54.0108 25.9542 53.092 24.8525 51.8714ZM40.8525 49.9765L39.1474 51.8714C38.9325 52.084 38.6925 52.244 38.4799 52.4314C39.7897 49.5857 40.6879 46.5685 41.1474 43.4714C42.6377 43.2703 44.1142 42.9868 45.5725 42.6165C44.4365 45.3183 42.8502 47.8051 40.8799 49.9765H40.8525Z" fill="#222222"/>
<path d="M50.0799 41.1765C51.8628 40.5411 53.2891 39.172 53.9999 37.4165L55.6525 32.244C56.0685 30.8954 55.9359 29.4394 55.2799 28.1914C54.6148 26.9845 53.4879 26.1 52.1599 25.7365L51.5199 25.524C50.9668 15.1514 42.3862 7.03025 31.9999 7.04396C21.6228 7.05539 13.0605 15.1628 12.4799 25.524L11.9199 25.7114C10.5599 26.0657 9.40336 26.9617 8.71994 28.1914C8.06394 29.4394 7.93136 30.8977 8.34736 32.244L9.99994 37.4165C10.7222 39.1903 12.1691 40.5685 13.9725 41.204L14.8274 41.4965C16.0822 45.3937 18.1554 48.9754 20.9074 52.004L22.6125 53.8965C24.0617 55.5057 25.8994 56.7171 27.9474 57.4165C29.2639 57.8508 30.6399 58.0748 32.0274 58.084C33.4148 58.084 34.7931 57.8485 36.1074 57.3914C38.1554 56.7034 39.9931 55.5011 41.4399 53.8965L43.1474 52.004C45.8902 48.9685 47.9611 45.3891 49.2274 41.4965L50.0799 41.1765V41.1765ZM52.6125 29.6565C52.9028 30.1594 52.9622 30.7628 52.7725 31.3114L51.1199 36.644C50.9005 37.1148 50.5599 37.5194 50.1325 37.8165C50.1485 37.748 50.1485 37.6748 50.1325 37.604L51.3325 29.604V28.884C51.8468 28.9571 52.3085 29.2383 52.6125 29.6565ZM48.5074 25.924C48.5691 26.948 48.5234 27.9765 48.3725 28.9914L48.1074 30.884C46.0297 30.1891 43.8971 29.6725 41.7325 29.3365C41.6639 26.532 41.4125 23.7365 40.9874 20.964C43.8582 21.7137 46.4114 23.3685 48.2674 25.684L48.5074 25.924V25.924ZM38.7199 28.964C37.0399 28.7765 35.3074 28.6714 33.3874 28.644V19.684C34.8457 19.748 36.2971 19.908 37.7325 20.164C38.2742 23.0691 38.6034 26.0108 38.7199 28.964ZM33.4925 16.564V11.9514C35.3439 13.0348 36.6468 14.8588 37.0674 16.964C35.9474 16.804 34.6674 16.724 33.4925 16.564V16.564ZM33.4925 54.2714V44.084C35.0399 44.084 36.5074 44.084 37.9725 43.844C36.9325 49.6314 35.0925 53.044 33.4925 54.3765V54.2714V54.2714ZM33.4925 40.9365V31.6565C35.3325 31.6565 37.1199 31.8165 38.8274 32.004V33.364C38.8411 35.8417 38.7085 38.3171 38.4274 40.7765C36.8525 40.9365 35.1999 41.0165 33.4925 41.0714V40.9365V40.9365ZM41.7874 32.564C43.7988 32.8725 45.7737 33.3914 47.6799 34.1114L47.4125 35.8965L47.1999 37.0965C47.0605 37.828 46.8799 38.548 46.6674 39.2565C44.9691 39.8051 43.2297 40.2165 41.4674 40.484C41.6799 38.2965 41.8125 35.9514 41.8125 33.4965C41.8125 33.044 41.7874 32.724 41.7874 32.564ZM44.6925 16.0314C45.8445 17.4714 46.7474 19.0943 47.3599 20.8314C45.1771 19.3503 42.7474 18.2668 40.1874 17.6314C39.7142 15.1583 38.6217 12.8474 37.0125 10.9114C40.0205 11.8257 42.6925 13.6085 44.6925 16.0314V16.0314ZM12.8799 36.5114L11.2274 31.1765C11.0377 30.628 11.0971 30.0268 11.3874 29.524C11.6479 29.0714 12.0639 28.7285 12.5599 28.564C12.5462 28.804 12.5462 29.044 12.5599 29.284L13.5474 36.164L13.7325 37.3365C13.7462 37.4165 13.7462 37.4965 13.7325 37.5765C13.3759 37.2863 13.0834 36.9228 12.8799 36.5114V36.5114ZM24.8525 51.8714L23.1474 49.9765C19.8468 46.324 17.6457 41.8143 16.7999 36.964L15.6274 28.964C14.9874 24.4817 16.2148 19.9308 19.0217 16.3788C21.8285 12.8245 25.9702 10.5754 30.4799 10.164V54.9365C29.9451 54.8451 29.4194 54.7103 28.9074 54.5365C27.3508 54.0108 25.9542 53.092 24.8525 51.8714ZM40.8525 49.9765L39.1474 51.8714C38.9325 52.084 38.6925 52.244 38.4799 52.4314C39.7897 49.5857 40.6879 46.5685 41.1474 43.4714C42.6377 43.2703 44.1142 42.9868 45.5725 42.6165C44.4365 45.3183 42.8502 47.8051 40.8799 49.9765H40.8525Z" fill="url(#paint1_linear_1098_3264)"/>
<defs>
<linearGradient id="paint0_linear_1098_3264" x1="35.7801" y1="29.3923" x2="8.50413" y2="13.9737" gradientUnits="userSpaceOnUse">
<stop stop-color="#00D1C9"/>
<stop offset="1" stop-color="#00E25E"/>
</linearGradient>
<linearGradient id="paint1_linear_1098_3264" x1="35.2046" y1="29.6914" x2="11.3654" y2="17.076" gradientUnits="userSpaceOnUse">
<stop stop-color="#00D1C9"/>
<stop offset="1" stop-color="#00E25E"/>
</linearGradient>
</defs>
</svg>
