<svg width="21" height="21" viewBox="0 0 21 21" fill="none" xmlns="http://www.w3.org/2000/svg">
<g clip-path="url(#clip0_2540_5053)">
<path d="M10.6992 20.9281C13.4527 20.9281 15.7642 19.9979 17.4526 18.3935L14.2345 15.8356C13.3734 16.4518 12.2176 16.882 10.6992 16.882C8.00236 16.882 5.71346 15.0567 4.89753 12.5337L4.77793 12.5441L1.62997 15.0438L1.58881 15.1613C3.26582 18.5794 6.71054 20.9281 10.6992 20.9281Z" fill="#34A853"/>
<path d="M4.89753 12.5334C4.68224 11.8824 4.55764 11.1847 4.55764 10.4639C4.55764 9.74301 4.68224 9.04544 4.8862 8.39436L4.8805 8.2557L1.69309 5.71582L1.58881 5.76672C0.89763 7.18518 0.50103 8.77805 0.50103 10.4639C0.50103 12.1498 0.89763 13.7425 1.58881 15.161L4.89753 12.5334Z" fill="#FBBC05"/>
<path d="M10.6992 4.04603C12.6142 4.04603 13.9059 4.89476 14.6425 5.60403L17.5206 2.72062C15.753 1.03477 13.4527 0 10.6992 0C6.71054 0 3.26582 2.34855 1.58881 5.76674L4.8862 8.39439C5.71346 5.87142 8.00236 4.04603 10.6992 4.04603Z" fill="#EB4335"/>
<path d="M20.4894 10.6964C20.4894 9.83605 20.4214 9.20821 20.2741 8.55713H10.6992V12.4404H16.3195C16.2062 13.4054 15.5943 14.8587 14.2345 15.8353L14.2155 15.9653L17.2429 18.3717L17.4526 18.3932C19.3789 16.5678 20.4894 13.8821 20.4894 10.6964Z" fill="#4285F4"/>
</g>
<defs>
<clipPath id="clip0_2540_5053">
<rect width="20" height="21" fill="white" transform="translate(0.5)"/>
</clipPath>
</defs>
</svg>
