<?xml version="1.0" encoding="UTF-8"?>
<svg width="752pt" height="752pt" version="1.1" viewBox="0 0 752 752" xmlns="http://www.w3.org/2000/svg">
 <path d="m425.32 459.13h-16.938v56.18l40.566 40.648h100.32c21.961 0 39.836-17.906 39.836-39.918v-82.461h-135.16c-1.6641 14.359-13.859 25.551-28.629 25.551zm123.95-263.09h-97.41l-43.477 43.574v58.07h16.938c14.441 0 26.398 10.703 28.484 24.598h135.3v-86.324c0-22.008-17.875-39.918-39.836-39.918zm-381.65 224.65h129.79v-85.512h-129.79zm227.9 25.551h29.801c8.8125 0 15.973-7.1797 15.973-16.008v-103.65c0-8.8242-7.1602-16.004-15.973-16.004h-29.801v-76.305l38.148-38.234h-117.24l38.152 38.234v76.305h-28.328c-8.8008 0-15.973 7.1797-15.973 16.004v107h-142.66v82.461c0 22.012 17.875 39.918 39.836 39.918h93.691l40.562-40.648v-68.809h12.867v74.145l-35.238 35.312h111.42l-35.238-35.312zm58.637-25.547h134.95v-85.512h-134.95zm-127.91-123.01h15.461v-58.07l-43.477-43.574h-90.777c-21.961 0-39.836 17.91-39.836 39.918v86.324h130.15c2.0781-13.895 14.039-24.598 28.48-24.598z" fill="#fff" fill-rule="evenodd"/>
</svg>
