<svg xmlns="http://www.w3.org/2000/svg" width="40" height="50"><path d="M 0 18.238 C 1.34 19.773 3.526 21 7 21 C 11.36 21 13.69 19.068 14.867 17.02 C 15.55 15.815 15.939 14.466 16 13.082 L 16 13.045 C 16 13.045 16 13.043 15 13.043 L 16 13.043 L 16 12 L 24 12 L 24 12.86 L 25 12.86 C 24 12.86 24 12.861 24 12.862 L 24 12.888 C 24.002 12.961 24.005 13.035 24.01 13.108 C 24.063 13.891 24.263 14.657 24.6 15.366 C 24.94 16.091 25.464 16.715 26.12 17.176 C 26.865 17.691 27.818 18 29 18 C 30.182 18 31.135 17.69 31.88 17.176 C 32.536 16.715 33.06 16.091 33.4 15.366 C 33.705 14.736 33.852 14.118 33.925 13.666 C 33.964 13.426 33.988 13.183 33.999 12.94 L 33.999 12.888 L 34 12.871 L 34 12.862 L 33 12.861 L 32 12.86 L 32 12.875 L 31.995 12.97 C 31.986 13.097 31.971 13.223 31.95 13.349 C 31.888 13.746 31.771 14.132 31.6 14.495 C 31.41 14.909 31.116 15.266 30.745 15.53 C 30.365 15.792 29.818 16 29 16 C 28.182 16 27.635 15.792 27.255 15.53 C 26.884 15.266 26.59 14.909 26.4 14.495 C 26.229 14.132 26.112 13.746 26.05 13.349 C 26.025 13.192 26.008 13.034 26 12.875 L 26 0 L 32 0 C 36.418 0 40 3.582 40 8 L 40 42 C 40 46.418 36.418 50 32 50 L 26 50 L 26 37.125 L 26.005 37.03 C 26.014 36.903 26.029 36.777 26.05 36.651 C 26.102 36.326 26.205 35.909 26.4 35.505 C 26.594 35.103 26.868 34.737 27.255 34.47 C 27.635 34.208 28.182 34 29 34 C 29.818 34 30.365 34.208 30.745 34.47 C 31.132 34.737 31.405 35.103 31.6 35.505 C 31.795 35.909 31.898 36.327 31.95 36.651 C 31.975 36.808 31.992 36.966 32 37.125 L 32 37.14 L 33 37.14 C 34 37.14 34 37.139 34 37.138 L 34 37.08 L 33.998 37.061 C 33.988 36.817 33.963 36.575 33.924 36.334 C 33.832 35.745 33.655 35.173 33.4 34.635 C 33.06 33.91 32.536 33.286 31.88 32.825 C 31.135 32.309 30.182 32 29 32 C 27.818 32 26.865 32.31 26.12 32.824 C 25.464 33.285 24.94 33.909 24.6 34.634 C 24.344 35.173 24.168 35.745 24.075 36.334 C 24.037 36.574 24.012 36.817 24.002 37.06 L 24.001 37.083 L 24.001 37.112 L 24 37.129 L 24 37.138 L 25 37.139 L 24 37.139 L 24 38 L 16 38 L 16 36.956 L 15 36.956 L 16 36.956 L 16 36.918 C 15.999 36.892 15.998 36.866 15.997 36.84 C 15.977 36.451 15.93 36.064 15.857 35.681 C 15.678 34.732 15.343 33.82 14.867 32.98 C 13.689 30.932 11.359 29 7 29 C 3.526 29 1.34 30.227 0 31.762 Z M 0 13.041 L 0 13.045 L 0.001 13.083 C 0.003 13.121 0.006 13.181 0.012 13.261 C 0.025 13.421 0.052 13.656 0.107 13.942 C 0.217 14.518 0.437 15.275 0.867 16.023 C 1.689 17.453 3.359 19 7 19 C 10.64 19 12.31 17.453 13.133 16.023 C 13.649 15.111 13.945 14.091 14 13.045 L 14 13.042 L 14 13.044 L 14.964 13.044 C 14 13.044 14 13.043 14 13.042 L 14 0 L 8 0 C 3.582 0 0 3.582 0 8 L 0 13.04 Z M 16 0 L 16 10 L 24 10 L 24 0 Z M 0 36.958 L 0 42 C 0 46.418 3.582 50 8 50 L 14 50 L 14 36.958 C 14 36.958 14 36.956 14.964 36.956 L 14 36.956 L 14 36.944 L 13.999 36.917 C 13.983 36.629 13.947 36.342 13.893 36.058 C 13.756 35.327 13.499 34.624 13.133 33.977 C 12.311 32.547 10.641 31 7 31 C 3.36 31 1.69 32.547 0.867 33.977 C 0.351 34.889 0.055 35.909 0 36.955 Z M 16 50 L 24 50 L 24 40 L 16 40 Z" fill="rgb(242,242,242)"></path></svg>