<svg width="93" height="16" viewBox="0 0 93 16" fill="none" xmlns="http://www.w3.org/2000/svg">
<g opacity="0.6" clip-path="url(#clip0_526_2466)">
<path d="M20.9996 8.21095L20.8129 8.0876C20.1842 7.4252 19.3057 7.1385 18.1372 7.21116C17.1586 7.27481 16.3898 7.68092 15.7953 8.05887V8.03071C15.7953 7.70908 15.8301 7.36155 15.8612 7.02303C15.9002 6.67944 15.935 6.32515 15.935 5.9962C15.935 5.6588 15.8959 5.33606 15.7836 5.06456C15.7606 4.99415 15.6974 4.95135 15.6166 4.95135C15.3058 4.95923 14.6884 5.18454 14.5369 5.32197C14.5369 5.3231 14.4594 5.51123 14.4594 5.51123C14.4513 5.87735 14.3775 6.90418 14.2967 7.02697C14.2999 7.02303 14.2571 7.15033 14.2571 7.15033C14.1217 8.61481 14.1217 9.90524 14.2453 11.0109C14.2571 11.1219 14.4594 11.2858 14.6145 11.3461C14.7857 11.4154 15.3218 11.2627 15.6322 11.1405L15.7488 11.1219C15.8456 11.1095 15.904 11.0228 15.9002 10.905C15.9002 10.9028 15.904 10.5885 15.904 10.5885C16.1292 9.63319 17.0302 8.49371 18.0981 8.32529C18.7038 8.22222 19.1821 8.38669 19.5588 8.81815C19.6091 8.89532 19.7177 9.58193 19.3218 10.3716C19.0264 10.9557 18.4325 11.4486 17.6519 11.7578C16.9179 12.0513 16.1019 12.1701 15.1003 12.133C15.0575 12.1042 14.1597 11.4649 14.1597 11.4649C13.3641 10.8786 12.3775 10.1463 11.4803 9.7909C11.3251 9.725 11.0415 9.47942 10.8741 9.33184L10.781 9.25073C10.2652 8.81815 9.27807 8.12646 8.48942 7.57503C8.48942 7.57503 8.1363 7.32325 8.06995 7.27481V7.17793C8.08922 7.15258 8.5868 6.83997 8.5868 6.83997C9.27807 6.41358 9.60016 6.20517 9.67025 6.09421C9.65473 6.11279 9.76441 6.03732 9.76441 6.03732C9.77137 6.03506 11.4835 5.01049 11.4835 5.01049C13.1351 4.05801 15.0115 2.97204 15.9938 1.90184C15.9938 1.89959 16.0393 1.73568 16.0393 1.73568L16.0629 1.59036C16.1292 1.3628 16.1292 1.18762 16.0794 0.983158C16.0629 0.926831 16.0126 0.858677 15.943 0.846848C15.1742 0.764048 14.187 1.24958 13.2828 2.13954C13.0806 2.34175 12.9094 2.43976 12.7274 2.54114L12.5915 2.62338C11.6007 3.2165 9.35939 4.67929 8.18713 5.4673C8.26043 4.14025 8.49745 2.25501 8.78476 0.680685L8.74945 0.494809C8.74624 0.489176 8.62907 0.258238 8.62907 0.258238L8.53651 0.0864427L8.5135 0.0796835C8.27969 -0.0464875 8.08547 0.00645935 7.94636 0.0413817L7.71308 0.133757L7.39848 0.251479C7.34016 0.266124 7.29736 0.305552 7.27007 0.365821C6.71043 1.79088 6.2412 4.13405 6.13633 6.00634C5.01757 5.25833 3.98121 4.72154 3.47185 4.46074L3.46062 4.45061L3.39802 4.43878C3.21931 4.41456 2.99406 4.27374 2.78059 4.13405C2.75758 4.12166 2.35363 3.84566 2.35363 3.84566L1.70837 3.40688C1.71265 3.41026 1.53448 3.36463 1.53448 3.36463C1.25413 3.41645 0.721765 3.79497 0.559114 4.0535C0.539853 4.08674 0.527546 4.12617 0.527546 4.16278C0.527546 4.21967 0.547343 4.27374 0.559114 4.32443L0.590145 4.46525L0.621177 4.54861C0.931498 4.88657 1.7164 5.44645 2.48524 5.88186L3.3825 6.38147L4.74952 7.1661C4.74952 7.17342 4.98226 7.36155 4.98226 7.36155L5.14598 7.45843C5.14598 7.45843 5.16096 7.47082 5.17327 7.47815C4.80784 7.73443 2.68374 9.22764 2.68374 9.22764L1.37451 10.1384C1.25413 10.2286 0.73407 10.4719 0.624922 10.5215C0.338143 10.6392 0.12413 10.8273 0.0347787 11.0295L0 11.1095L0.0347787 11.1624L0.135365 11.243C0.13162 11.243 0.271798 11.3342 0.271798 11.3342L0.415189 11.4384L0.551624 11.461C0.776874 11.4694 1.11823 11.332 1.7592 11.0374C2.34132 10.7642 3.92984 9.75767 4.60987 9.32452L4.89719 9.14371C5.02185 9.15273 5.15294 9.04683 5.27011 8.95333C5.40601 8.83899 5.70135 8.64748 5.87952 8.56412C5.88754 8.56186 5.99241 8.50159 6.08978 8.44527V8.5275C6.11707 10.7124 6.23745 12.3036 6.4627 13.527L6.46592 13.5479L6.48999 13.5974C6.5986 13.7709 6.72648 14.2902 6.84312 14.7471L7.0994 15.6579C7.10742 15.6708 7.17323 15.7435 7.17323 15.7435C7.32144 15.8482 7.7714 16.0319 8.06995 15.9952L8.14753 15.9868L8.19462 15.8725C8.21816 15.7378 8.22939 15.6049 8.22939 15.4551C8.22939 15.2878 8.21441 15.1064 8.20211 14.8789L8.18285 14.5522C8.08547 13.024 7.99237 10.8205 7.99237 9.35268V9.23834C8.2417 9.40225 9.31659 10.1153 9.31659 10.1153C11.1544 11.368 13.9275 13.2595 15.5974 13.7613C15.6825 13.7884 15.775 13.7664 15.8424 13.7016C15.8424 13.6994 16.0982 13.527 16.0982 13.527L16.1447 13.5101C16.2458 13.4583 16.3074 13.2893 16.3191 13.1046C17.7332 13.0308 19.6984 12.4563 20.7514 11.0622C21.1623 10.5215 21.3453 9.86018 21.3453 9.29692C21.3453 8.83279 21.2249 8.42893 20.9996 8.21095Z" fill="#FCAF16"/>
<path d="M80.5819 2.1313L79.2802 2.1313V13.0259H80.5819V6.03865H81.9029V4.85411H80.5819V2.1313ZM91.4528 7.48004L84.9553 7.48004V3.54058L91.4528 3.54058V2.36674L83.6771 2.36674V8.65163L91.4528 8.65163V7.48004ZM82.6167 12.2897L92.5218 12.2897V11.1227L82.6167 11.1227V12.2897ZM71.7768 3.55241L76.3985 3.55241V5.18644L71.7768 5.18644V6.35689L76.3985 6.35689V9.48976H77.704V2.36674L71.7768 2.36674V3.55241ZM42.2102 11.8211H38.9711V8.00275L42.1283 8.00275C43.9426 8.00275 44.7618 8.69444 44.7618 9.93868C44.7618 10.9914 44.2267 11.8211 42.2102 11.8211ZM38.9711 3.43187L42.1283 3.43187C44.024 3.43187 44.4787 4.10948 44.4787 5.11715C44.4787 6.27353 43.5579 6.77033 42.3188 6.77033L38.9711 6.77033V3.43187ZM44.0432 7.38541V7.33923C45.2005 7.09815 46.0705 6.19637 46.0705 4.88622C46.0705 3.04209 44.8083 2.1972 42.3964 2.1972L37.328 2.1972V13.0535H42.5601C45.3594 13.0535 46.4899 11.6504 46.4899 10.0288C46.4899 8.7395 45.7024 7.59213 44.0432 7.38541ZM35.6967 2.17523H33.3585L27.8209 7.03225V2.17523L26.1741 2.17523V13.0282H27.8209V7.21249L33.8481 13.0282H36.1782L29.8359 7.07956L35.6967 2.17523ZM70.4451 2.08398H69.1525V9.25038H70.4451V2.08398ZM63.6919 8.97607H62.3944V12.9893L70.543 12.9893V11.807L63.6919 11.807V8.97607ZM58.9916 2.1589L50.2694 2.1589V3.33161L57.6915 3.33161V5.68887L49.3326 5.68887V6.86721L53.9548 6.86721V8.57164H50.1293V9.74943L57.753 9.74943V13.0316H59.0462V8.57164L55.2474 8.57164V6.86721L59.9199 6.86721V5.68042H58.9916V2.1589ZM66.076 6.61543H62.5153V3.52932L66.076 3.52932V6.61543ZM67.3655 2.34703L61.2248 2.34703V7.80561L67.3655 7.80561V2.34703Z" fill="white"/>
</g>
<defs>
<clipPath id="clip0_526_2466">
<rect width="92.5217" height="16" fill="white"/>
</clipPath>
</defs>
</svg>
