<svg width="41" height="54" viewBox="0 0 41 54" fill="none" xmlns="http://www.w3.org/2000/svg">
<path fill-rule="evenodd" clip-rule="evenodd" d="M24.547 40.7594L34.0765 43.3069L39.8571 21.7849C42.34 12.54 36.8866 3.04974 27.6762 0.587714C18.4661 -1.87431 8.98692 3.62425 6.50377 12.8691L0.723267 34.391L10.2529 36.9384L8.32602 44.1124C7.26173 48.0747 9.59898 52.1417 13.5462 53.1968C17.4937 54.2522 21.5561 51.8957 22.6204 47.9334L24.547 40.7594ZM30.5964 37.2507L35.0922 20.5112C36.8659 13.9077 32.9703 7.12892 26.392 5.37034C19.813 3.61175 13.0421 7.53931 11.2687 14.1428L6.7725 30.8822L16.302 33.4297L13.0906 45.3862C12.736 46.707 13.5149 48.0626 14.831 48.4142C16.1467 48.7661 17.5006 47.9806 17.8555 46.6598L21.0669 34.7033L30.5964 37.2507Z" fill="#2EA4AB"/>
<path fill-rule="evenodd" clip-rule="evenodd" d="M5.27327 35.4778L10.235 36.8041L8.30813 43.978C7.24384 47.9403 9.58109 52.0074 13.5286 53.0625C17.4758 54.1179 21.5382 51.7613 22.6025 47.799L24.5294 40.6251L34.0586 43.1725L39.8392 21.6505C40.414 19.5101 40.5635 17.3567 40.3394 15.2803L35.4668 18.0868C35.4089 18.8471 35.2797 19.6131 35.0743 20.3768L30.5785 37.1163L21.049 34.5689L17.8376 46.5255C17.4831 47.8462 16.1288 48.6317 14.8131 48.2798C13.4973 47.9282 12.7182 46.5724 13.073 45.2519L16.2844 33.295L11.3521 31.9767L5.27327 35.4778Z" fill="#5D5FEF"/>
</svg>
