<svg width="21" height="32" viewBox="0 0 21 32" fill="none" xmlns="http://www.w3.org/2000/svg">
<path fill-rule="evenodd" clip-rule="evenodd" d="M14.5455 23.2727H20.3636V10.1818C20.3636 4.55856 15.8051 0 10.1818 0C4.55856 0 0 4.55856 0 10.1818V23.2727H5.81818V27.6364C5.81818 30.0464 7.77178 32 10.1818 32C12.5919 32 14.5455 30.0464 14.5455 27.6364V23.2727ZM17.4545 20.3636V10.1818C17.4545 6.16521 14.1984 2.90909 10.1818 2.90909C6.16521 2.90909 2.90909 6.16521 2.90909 10.1818V20.3636H8.72727V27.6364C8.72727 28.4397 9.37847 29.0909 10.1818 29.0909C10.9852 29.0909 11.6364 28.4397 11.6364 27.6364V20.3636H17.4545Z" fill="#2EA4AB"/>
</svg>
