<svg width="147" height="147" viewBox="0 0 147 147" fill="none" xmlns="http://www.w3.org/2000/svg">
<g clip-path="url(#clip0_526_2812)">
<path d="M94.4 47.0637V17.4637C94.3659 16.1667 93.8219 14.9353 92.8859 14.0368C91.9499 13.1382 90.6974 12.6449 89.4 12.6637H30.63C29.3326 12.6449 28.0801 13.1382 27.1441 14.0368C26.2081 14.9353 25.6641 16.1667 25.63 17.4637V127.864C25.6641 129.161 26.2081 130.392 27.1441 131.291C28.0801 132.189 29.3326 132.683 30.63 132.664H89.36C90.6574 132.683 91.9099 132.189 92.8459 131.291C93.7819 130.392 94.3259 129.161 94.36 127.864V95.8637" fill="white"/>
<path d="M87.21 95.4637V111.464C87.2074 111.571 87.1836 111.678 87.14 111.776C87.0964 111.875 87.0338 111.963 86.9558 112.038C86.8778 112.112 86.7859 112.17 86.6854 112.209C86.5849 112.248 86.4777 112.266 86.37 112.264H36.03C35.9223 112.266 35.8152 112.248 35.7146 112.209C35.6141 112.17 35.5223 112.112 35.4442 112.038C35.3662 111.963 35.3036 111.875 35.26 111.776C35.2164 111.678 35.1926 111.571 35.19 111.464V29.8637C35.1926 29.756 35.2164 29.6499 35.26 29.5514C35.3036 29.4529 35.3662 29.364 35.4442 29.2897C35.5223 29.2154 35.6141 29.1572 35.7146 29.1184C35.8152 29.0797 35.9223 29.0611 36.03 29.0637H86.37C86.4777 29.0611 86.5849 29.0797 86.6854 29.1184C86.7859 29.1572 86.8778 29.2154 86.9558 29.2897C87.0338 29.364 87.0964 29.4529 87.14 29.5514C87.1836 29.6499 87.2074 29.756 87.21 29.8637V45.8637H60.36C60.0369 45.8557 59.7154 45.9115 59.4139 46.0278C59.1124 46.1441 58.8368 46.3187 58.6027 46.5416C58.3687 46.7645 58.1809 47.0313 58.05 47.3268C57.9192 47.6223 57.8478 47.9406 57.84 48.2637V93.0637C57.8478 93.3868 57.9192 93.7052 58.05 94.0007C58.1809 94.2962 58.3687 94.563 58.6027 94.7859C58.8368 95.0087 59.1124 95.1833 59.4139 95.2996C59.7154 95.4159 60.0369 95.4717 60.36 95.4637H87.21Z" fill="#A8CBEB"/>
<path d="M60 124.664C61.3255 124.664 62.4 123.589 62.4 122.264C62.4 120.938 61.3255 119.864 60 119.864C58.6745 119.864 57.6 120.938 57.6 122.264C57.6 123.589 58.6745 124.664 60 124.664Z" fill="#515F76"/>
<path d="M53.2 21.8638H68.4" stroke="#515F76" stroke-width="2.4" stroke-miterlimit="10" stroke-linecap="round"/>
<path d="M86.37 29.0637H36.03C35.57 29.0637 34.5 29.4237 34.5 29.8637V33.0637H87.5V29.8637C87.4255 29.6249 87.2746 29.4171 87.0704 29.2726C86.8661 29.128 86.62 29.0546 86.37 29.0637Z" fill="#85BEE1"/>
<path d="M124 105.864V111.464" stroke="#515F76" stroke-width="2.4" stroke-miterlimit="10" stroke-linecap="round"/>
<path d="M126.8 108.664H121.2" stroke="#515F76" stroke-width="2.4" stroke-miterlimit="10" stroke-linecap="round"/>
<path d="M79.8 1.46375L83 4.66374" stroke="#EA9080" stroke-width="1.6" stroke-miterlimit="10" stroke-linecap="round"/>
<path d="M83 1.46375L79.8 4.66374" stroke="#EA9080" stroke-width="1.6" stroke-miterlimit="10" stroke-linecap="round"/>
<path d="M17.6 144.664C18.4837 144.664 19.2 143.947 19.2 143.064C19.2 142.18 18.4837 141.464 17.6 141.464C16.7163 141.464 16 142.18 16 143.064C16 143.947 16.7163 144.664 17.6 144.664Z" fill="#B8B9BA"/>
<path d="M32.4 144.664C33.5046 144.664 34.4 143.768 34.4 142.664C34.4 141.559 33.5046 140.664 32.4 140.664C31.2954 140.664 30.4 141.559 30.4 142.664C30.4 143.768 31.2954 144.664 32.4 144.664Z" stroke="#B8B9BA" stroke-width="1.6" stroke-miterlimit="10" stroke-linecap="round"/>
<path d="M100 7.8637C100.884 7.8637 101.6 7.14735 101.6 6.2637C101.6 5.38004 100.884 4.6637 100 4.6637C99.1163 4.6637 98.4 5.38004 98.4 6.2637C98.4 7.14735 99.1163 7.8637 100 7.8637Z" fill="#B8B9BA"/>
<path d="M14.02 124.414L16.21 123.264C16.2365 123.25 16.2661 123.244 16.2957 123.247C16.3253 123.249 16.3536 123.26 16.3774 123.278C16.4013 123.295 16.4198 123.319 16.4308 123.347C16.4419 123.374 16.4451 123.404 16.44 123.434L16.02 125.864L17.79 127.584C17.8106 127.605 17.8249 127.631 17.8315 127.66C17.8381 127.688 17.8367 127.718 17.8274 127.746C17.8181 127.774 17.8013 127.799 17.7788 127.818C17.7563 127.837 17.7291 127.849 17.7 127.854L15.26 128.214L14.17 130.424C14.1571 130.451 14.1366 130.475 14.111 130.491C14.0853 130.507 14.0554 130.516 14.025 130.516C13.9945 130.516 13.9647 130.507 13.939 130.491C13.9134 130.475 13.8929 130.451 13.88 130.424L12.79 128.214L10.35 127.854C10.3209 127.849 10.2937 127.837 10.2712 127.818C10.2487 127.799 10.2319 127.774 10.2226 127.746C10.2133 127.718 10.2119 127.688 10.2185 127.66C10.2251 127.631 10.2394 127.605 10.26 127.584L12.03 125.864L11.61 123.434C11.6049 123.404 11.6081 123.374 11.6192 123.347C11.6302 123.319 11.6487 123.295 11.6725 123.278C11.6964 123.26 11.7247 123.249 11.7543 123.247C11.7839 123.244 11.8135 123.25 11.84 123.264L14.02 124.414Z" fill="#A8CBEB"/>
<path d="M104.4 21.4637C105.505 21.4637 106.4 20.5683 106.4 19.4637C106.4 18.3592 105.505 17.4637 104.4 17.4637C103.295 17.4637 102.4 18.3592 102.4 19.4637C102.4 20.5683 103.295 21.4637 104.4 21.4637Z" stroke="#B8B9BA" stroke-width="1.6" stroke-miterlimit="10" stroke-linecap="round"/>
<path d="M135.2 103.064C136.084 103.064 136.8 102.347 136.8 101.464C136.8 100.58 136.084 99.8638 135.2 99.8638C134.316 99.8638 133.6 100.58 133.6 101.464C133.6 102.347 134.316 103.064 135.2 103.064Z" fill="#B8B9BA"/>
<path d="M68.5 86.0637H80.5" stroke="#343F43" stroke-width="2" stroke-miterlimit="10" stroke-linecap="round"/>
<path d="M60.4 96.2637C59.7635 96.2637 59.153 96.0109 58.703 95.5608C58.2529 95.1107 58 94.5003 58 93.8637V51.4637H55.6C54.9635 51.4637 54.353 51.7166 53.903 52.1667C53.4529 52.6168 53.2 53.2272 53.2 53.8637V98.6637C53.2 99.3003 53.4529 99.9107 53.903 100.361C54.353 100.811 54.9635 101.064 55.6 101.064H94.8V96.2637H60.4Z" fill="#C3C7CD"/>
<path d="M86.8 96.2637H60.4C59.7635 96.2637 59.153 96.0109 58.703 95.5608C58.2529 95.1107 58 94.5003 58 93.8637V51.4637H55.6C54.9635 51.4637 54.353 51.7166 53.903 52.1667C53.4529 52.6168 53.2 53.2272 53.2 53.8637V98.6637C53.2 99.3003 53.4529 99.9107 53.903 100.361C54.353 100.811 54.9635 101.064 55.6 101.064H86.8L86 96.2637H86.8Z" fill="#85BEE1"/>
<path d="M130 56.2637H58V69.0637H130V56.2637Z" fill="white"/>
<path d="M130 49.0637V56.2637H58V49.0637C58 48.4272 58.2529 47.8167 58.7029 47.3666C59.153 46.9166 59.7635 46.6637 60.4 46.6637H127.6C128.237 46.6637 128.847 46.9166 129.297 47.3666C129.747 47.8167 130 48.4272 130 49.0637Z" fill="#EA9080"/>
<path d="M130 69.0637V93.8637C130 94.5002 129.747 95.1107 129.297 95.5608C128.847 96.0109 128.237 96.2637 127.6 96.2637H60.4C59.7635 96.2637 59.153 96.0109 58.7029 95.5608C58.2529 95.1107 58 94.5002 58 93.8637V69.0637H130Z" fill="#EA9080"/>
<path d="M82.75 76.2537H88.75" stroke="#515F76" stroke-width="2.4" stroke-miterlimit="10" stroke-linecap="round"/>
<path d="M97.75 76.2537H104.75" stroke="#515F76" stroke-width="2.4" stroke-miterlimit="10" stroke-linecap="round"/>
<path d="M112.75 76.2537H119.75" stroke="#515F76" stroke-width="2.4" stroke-miterlimit="10" stroke-linecap="round"/>
<path d="M86 96.2637V111.464C85.9974 111.571 85.9736 111.678 85.93 111.776C85.8864 111.875 85.8238 111.963 85.7458 112.038C85.6678 112.112 85.5759 112.17 85.4754 112.209C85.3749 112.248 85.2677 112.266 85.16 112.264H34.84C34.7323 112.266 34.6251 112.248 34.5246 112.209C34.4241 112.17 34.3323 112.112 34.2542 112.038C34.1762 111.963 34.1136 111.875 34.07 111.776C34.0264 111.678 34.0026 111.571 34 111.464V29.8637C34.0026 29.756 34.0264 29.6499 34.07 29.5514C34.1136 29.4529 34.1762 29.364 34.2542 29.2897C34.3323 29.2154 34.4241 29.1572 34.5246 29.1184C34.6251 29.0797 34.7323 29.0611 34.84 29.0637H85.16C85.2677 29.0611 85.3749 29.0797 85.4754 29.1184C85.5759 29.1572 85.6678 29.2154 85.7458 29.2897C85.8238 29.364 85.8864 29.4529 85.93 29.5514C85.9736 29.6499 85.9974 29.756 86 29.8637V46.6637" stroke="#515F76" stroke-width="2.4" stroke-miterlimit="10"/>
<path d="M68.75 76.2537H74.75" stroke="#515F76" stroke-width="2.4" stroke-miterlimit="10" stroke-linecap="round"/>
<path d="M68.5 84.0637H81.5" stroke="#515F76" stroke-width="2" stroke-miterlimit="10" stroke-linecap="round"/>
<path d="M95.6 47.4638V17.8638C95.5743 17.2061 95.419 16.56 95.143 15.9625C94.867 15.365 94.4757 14.8279 93.9917 14.3819C93.5076 13.936 92.9403 13.59 92.3223 13.3638C91.7042 13.1376 91.0475 13.0356 90.39 13.0638H29.61C28.9524 13.0356 28.2958 13.1376 27.6777 13.3638C27.0597 13.59 26.4923 13.936 26.0083 14.3819C25.5242 14.8279 25.133 15.365 24.857 15.9625C24.581 16.56 24.4257 17.2061 24.4 17.8638V128.264C24.4257 128.921 24.581 129.568 24.857 130.165C25.133 130.763 25.5242 131.3 26.0083 131.746C26.4923 132.192 27.0597 132.538 27.6777 132.764C28.2958 132.99 28.9524 133.092 29.61 133.064H90.39C91.0475 133.092 91.7042 132.99 92.3223 132.764C92.9403 132.538 93.5076 132.192 93.9917 131.746C94.4757 131.3 94.867 130.763 95.143 130.165C95.419 129.568 95.5743 128.921 95.6 128.264V96.2638" stroke="#515F76" stroke-width="2.4" stroke-miterlimit="10"/>
<path d="M61.5 93.8637V69.0637H57.5V93.8637C57.5 95.1937 59.07 96.0637 60.4 96.0637H64.4C63.07 96.0637 61.5 95.1937 61.5 93.8637Z" fill="#EEB8A9"/>
<path d="M60.5 53.8637C60.5 52.5337 61.81 51.7937 63.13 51.7937L129.5 50.1937V49.0637C129.5 47.7337 128.93 46.0637 127.6 46.0637H60.4C59.6547 46.1769 58.9672 46.5318 58.4432 47.0738C57.9193 47.6159 57.5879 48.315 57.5 49.0637V56.0637H60.5V53.8637Z" fill="#EEB8A9"/>
<path d="M127.6 46.6637H60.4C59.0745 46.6637 58 47.7382 58 49.0637V93.8637C58 95.1892 59.0745 96.2637 60.4 96.2637H127.6C128.925 96.2637 130 95.1892 130 93.8637V49.0637C130 47.7382 128.925 46.6637 127.6 46.6637Z" stroke="#515F76" stroke-width="2.4" stroke-miterlimit="10"/>
</g>
<defs>
<clipPath id="clip0_526_2812">
<rect width="146" height="146" fill="white" transform="translate(0.5 0.0637207)"/>
</clipPath>
</defs>
</svg>
