<svg width="29" height="33" viewBox="0 0 29 33" fill="none" xmlns="http://www.w3.org/2000/svg">
<path fill-rule="evenodd" clip-rule="evenodd" d="M28.2041 16.4895C28.2041 24.2617 21.9038 30.562 14.1316 30.562C6.36045 30.562 0.059082 24.2617 0.059082 16.4895C0.059082 8.71762 6.36008 2.41699 14.1316 2.41699C21.9038 2.41699 28.2041 8.71762 28.2041 16.4895Z" fill="#0AEA8E"/>
<g style="mix-blend-mode:multiply">
<path fill-rule="evenodd" clip-rule="evenodd" d="M16.0143 2.44638C16.0143 2.94562 15.816 3.42442 15.463 3.77744C15.11 4.13046 14.6312 4.32879 14.1319 4.32879C13.6327 4.32879 13.1539 4.13046 12.8009 3.77744C12.4478 3.42442 12.2495 2.94562 12.2495 2.44638C12.2495 1.94713 12.4478 1.46833 12.8009 1.11531C13.1539 0.76229 13.6327 0.563965 14.1319 0.563965C14.6312 0.563965 15.11 0.76229 15.463 1.11531C15.816 1.46833 16.0143 1.94713 16.0143 2.44638Z" fill="#00C7FF"/>
</g>
<g style="mix-blend-mode:multiply">
<path fill-rule="evenodd" clip-rule="evenodd" d="M16.0145 30.6814C16.0145 30.9287 15.9658 31.1735 15.8712 31.4019C15.7765 31.6303 15.6379 31.8378 15.4631 32.0126C15.2882 32.1874 15.0807 32.3261 14.8523 32.4207C14.6239 32.5153 14.3791 32.564 14.1319 32.564C13.8846 32.564 13.6398 32.5153 13.4114 32.4207C13.183 32.3261 12.9755 32.1874 12.8007 32.0126C12.6259 31.8378 12.4872 31.6303 12.3926 31.4019C12.298 31.1735 12.2493 30.9287 12.2493 30.6814C12.2493 30.1821 12.4476 29.7033 12.8007 29.3502C13.1537 28.9972 13.6326 28.7988 14.1319 28.7988C14.6312 28.7988 15.11 28.9972 15.4631 29.3502C15.8161 29.7033 16.0145 30.1821 16.0145 30.6814Z" fill="#0AEA8E"/>
</g>
<path fill-rule="evenodd" clip-rule="evenodd" d="M20.1457 23.1869H8.11823C7.93691 23.1869 7.76301 23.1149 7.63477 22.9867C7.50652 22.8586 7.43442 22.6847 7.43433 22.5034V10.4759C7.43433 10.0982 7.74056 9.79199 8.11823 9.79199H20.1457C20.5234 9.79199 20.8296 10.0982 20.8296 10.4759V22.5034C20.8296 22.5932 20.8119 22.6821 20.7776 22.7651C20.7432 22.8481 20.6928 22.9235 20.6293 22.987C20.5658 23.0505 20.4904 23.1009 20.4074 23.1352C20.3245 23.1696 20.2355 23.1873 20.1457 23.1873V23.1869Z" stroke="white" stroke-width="2.529" stroke-linecap="round" stroke-linejoin="round"/>
<g style="mix-blend-mode:multiply">
<path fill-rule="evenodd" clip-rule="evenodd" d="M3.7652 23.9052C3.77013 24.1556 3.72507 24.4044 3.63266 24.6371C3.54025 24.8698 3.40235 25.0818 3.22702 25.2606C3.05169 25.4393 2.84247 25.5813 2.61159 25.6783C2.38071 25.7752 2.13281 25.8251 1.88241 25.8251C1.63201 25.825 1.38414 25.775 1.15329 25.678C0.922452 25.581 0.713282 25.4389 0.538026 25.26C0.36277 25.0812 0.22495 24.8692 0.132632 24.6364C0.0403136 24.4037 -0.00464771 24.1548 0.000379517 23.9045C0.00738343 23.4098 0.208835 22.9377 0.561168 22.5903C0.913502 22.243 1.3884 22.0483 1.88316 22.0483C2.37792 22.0484 2.85278 22.2432 3.20504 22.5906C3.55731 22.938 3.75867 23.4101 3.76557 23.9048" fill="#00C7FF"/>
</g>
<g style="mix-blend-mode:multiply">
<path fill-rule="evenodd" clip-rule="evenodd" d="M3.76512 9.22225C3.76863 9.47166 3.72254 9.71927 3.62952 9.95071C3.5365 10.1821 3.39842 10.3928 3.22329 10.5704C3.04816 10.748 2.83948 10.889 2.60938 10.9853C2.37927 11.0816 2.13233 11.1311 1.8829 11.1311C1.63347 11.1311 1.38653 11.0816 1.15642 10.9853C0.926318 10.889 0.717638 10.748 0.54251 10.5704C0.367381 10.3928 0.229296 10.1821 0.136279 9.95071C0.043262 9.71927 -0.0028324 9.47166 0.000674341 9.22225C0.000674341 8.72301 0.198999 8.24421 0.55202 7.89119C0.90504 7.53817 1.38384 7.33984 1.88309 7.33984C2.38233 7.33984 2.86113 7.53817 3.21415 7.89119C3.56717 8.24421 3.7655 8.72301 3.7655 9.22225H3.76512ZM28.0478 9.22225C28.0478 9.72155 27.8495 10.2004 27.4964 10.5535C27.1434 10.9065 26.6645 11.1049 26.1652 11.1049C25.6659 11.1049 25.1871 10.9065 24.834 10.5535C24.481 10.2004 24.2826 9.72155 24.2826 9.22225C24.2826 8.72301 24.4809 8.24421 24.834 7.89119C25.187 7.53817 25.6658 7.33984 26.165 7.33984C26.6643 7.33984 27.1431 7.53817 27.4961 7.89119C27.8491 8.24421 28.0474 8.72301 28.0474 9.22225" fill="#0AEA8E"/>
</g>
<g style="mix-blend-mode:multiply">
<path fill-rule="evenodd" clip-rule="evenodd" d="M28.0478 23.9053C28.0477 24.1526 27.999 24.3974 27.9043 24.6258C27.8097 24.8542 27.6709 25.0617 27.4961 25.2365C27.3212 25.4113 27.1136 25.55 26.8852 25.6445C26.6567 25.7391 26.4119 25.7878 26.1646 25.7877C25.9174 25.7877 25.6726 25.7389 25.4442 25.6443C25.2157 25.5496 25.0082 25.4109 24.8334 25.236C24.6586 25.0611 24.52 24.8536 24.4254 24.6251C24.3308 24.3967 24.2822 24.1518 24.2822 23.9046C24.2823 23.4052 24.4807 22.9264 24.8338 22.5733C25.1869 22.2202 25.6659 22.0219 26.1652 22.022C26.6645 22.022 27.1434 22.2204 27.4965 22.5736C27.8495 22.9267 28.0478 23.4056 28.0478 23.9049" fill="#00C7FF"/>
</g>
<path fill-rule="evenodd" clip-rule="evenodd" d="M13.1829 19.7942C12.8689 20.108 12.4431 20.2843 11.9992 20.2843C11.5553 20.2843 11.1296 20.108 10.8156 19.7942C10.6599 19.6391 10.5365 19.4546 10.4525 19.2515C10.3684 19.0485 10.3254 18.8307 10.3259 18.611C10.3253 18.391 10.3683 18.1731 10.4524 17.9699C10.5365 17.7666 10.6601 17.5821 10.816 17.427L11.4091 16.8331C11.4752 16.7581 11.5115 16.6614 11.511 16.5613C11.5105 16.4613 11.4733 16.365 11.4065 16.2906L10.8156 15.7005C10.6597 15.5453 10.5361 15.3608 10.4519 15.1575C10.3677 14.9543 10.3246 14.7364 10.3252 14.5165C10.3246 14.2964 10.3678 14.0783 10.4521 13.875C10.5364 13.6717 10.6602 13.4872 10.8164 13.3321C10.9713 13.1762 11.1556 13.0527 11.3587 12.9687C11.5618 12.8847 11.7795 12.8419 11.9992 12.8428C12.2191 12.8422 12.4369 12.8852 12.6401 12.9692C12.8433 13.0531 13.0279 13.1765 13.1832 13.3321L13.7723 13.9207C13.9274 14.0621 14.1622 14.0636 14.3189 13.9245L14.9101 13.3328C15.065 13.1767 15.2493 13.053 15.4525 12.9689C15.6556 12.8847 15.8735 12.8419 16.0934 12.8428C16.5399 12.8428 16.9607 13.0169 17.277 13.3332C17.4329 13.4882 17.5566 13.6726 17.6407 13.8757C17.7248 14.0788 17.7678 14.2966 17.767 14.5165C17.767 14.963 17.5933 15.3842 17.277 15.7005L16.6861 16.2906C16.6187 16.3657 16.5815 16.4631 16.5818 16.564C16.582 16.6649 16.6197 16.7621 16.6876 16.8368L17.277 17.427C17.433 17.582 17.5567 17.7665 17.6408 17.9698C17.7249 18.173 17.7678 18.391 17.767 18.611C17.7677 18.8308 17.7248 19.0486 17.6407 19.2517C17.5565 19.4548 17.4329 19.6392 17.277 19.7942C17.1219 19.9501 16.9374 20.0737 16.7343 20.1579C16.5311 20.2421 16.3133 20.2852 16.0934 20.2846C15.8734 20.2854 15.6555 20.2425 15.4523 20.1583C15.2491 20.0741 15.0647 19.9503 14.9097 19.7942L14.3181 19.2033C14.2434 19.1363 14.1465 19.0992 14.0461 19.0992C13.9457 19.0992 13.8489 19.1363 13.7741 19.2033L13.1825 19.7942H13.1829Z" stroke="white" stroke-width="2.381" stroke-linecap="round" stroke-linejoin="round"/>
<path d="M14.1321 23.5302V25.3906M6.9857 12.1393H5.12524H6.9857ZM6.9857 20.9884H5.12524H6.9857ZM6.9857 16.5639H5.12524H6.9857ZM21.2 12.1393H23.0604H21.2ZM21.2 20.9884H23.0604H21.2ZM21.2 16.5639H23.0604H21.2ZM9.70792 9.31554V7.45508V9.31554ZM18.5563 9.31554V7.45508V9.31554ZM14.1321 9.31554V7.45508V9.31554ZM9.70792 23.5302V25.3906V23.5302ZM18.5563 23.5302V25.3906V23.5302Z" stroke="white" stroke-width="2.529" stroke-linecap="round" stroke-linejoin="round"/>
</svg>
