<svg width="62" height="59" viewBox="0 0 62 59" fill="none" xmlns="http://www.w3.org/2000/svg">
<path d="M18.4457 25.8303L19.5457 33.1693C19.5735 33.3542 19.6568 33.5262 19.7845 33.6627C19.9123 33.7992 20.0786 33.8936 20.2612 33.9334C20.4439 33.9732 20.6343 33.9565 20.8073 33.8856C20.9803 33.8147 21.1276 33.6929 21.2297 33.5363L26.5007 25.4463" stroke="#2C3939" stroke-linecap="round" stroke-linejoin="round"/>
<path d="M18.4457 25.8303L19.5457 33.1693C19.5735 33.3542 19.6568 33.5262 19.7845 33.6627C19.9123 33.7992 20.0786 33.8936 20.2612 33.9334C20.4439 33.9732 20.6343 33.9565 20.8073 33.8856C20.9803 33.8147 21.1276 33.6929 21.2297 33.5363L26.5007 25.4463" stroke="white" stroke-opacity="0.6" stroke-linecap="round" stroke-linejoin="round"/>
<path d="M16.9727 11.3054L16.4527 3.90544C16.4398 3.71878 16.4838 3.53257 16.5791 3.37152C16.6744 3.21048 16.8163 3.08218 16.9862 3.00366C17.156 2.92514 17.3457 2.90009 17.5301 2.93184C17.7145 2.96359 17.8849 3.05064 18.0187 3.18144L24.5627 9.58944" stroke="#2C3939" stroke-linecap="round" stroke-linejoin="round"/>
<path d="M16.9727 11.3054L16.4527 3.90544C16.4398 3.71878 16.4838 3.53257 16.5791 3.37152C16.6744 3.21048 16.8163 3.08218 16.9862 3.00366C17.156 2.92514 17.3457 2.90009 17.5301 2.93184C17.7145 2.96359 17.8849 3.05064 18.0187 3.18144L24.5627 9.58944" stroke="white" stroke-opacity="0.6" stroke-linecap="round" stroke-linejoin="round"/>
<path d="M30.2697 9.39233L26.0297 16.8623L30.6777 24.8593" stroke="#2C3939" stroke-linecap="round" stroke-linejoin="round"/>
<path d="M30.2697 9.39233L26.0297 16.8623L30.6777 24.8593" stroke="white" stroke-opacity="0.6" stroke-linecap="round" stroke-linejoin="round"/>
<path d="M30.6777 24.8594C28.0337 25.1754 24.7477 25.4054 20.6657 25.6004C4.55873 26.3674 6.78373 39.1764 6.78373 39.1764C15.0667 41.0164 16.6777 43.5474 14.6837 46.0014C12.6897 48.4554 8.85473 46.1554 8.85473 46.1554C8.85473 46.1554 9.08473 48.3794 5.17373 49.6834C1.26273 50.9874 2.56573 41.8594 2.56573 41.8594C2.56573 41.8594 -0.119268 37.6424 0.877732 29.8964C2.54573 16.9644 14.2987 11.8714 24.8827 9.87742C26.657 9.53113 28.4622 9.36861 30.2697 9.39242C37.5427 9.53742 41.6297 13.3494 41.0697 18.5434C40.6637 22.2594 38.4657 23.9294 30.6777 24.8594Z" stroke="#2C3939" stroke-linecap="round" stroke-linejoin="round"/>
<path d="M30.6777 24.8594C28.0337 25.1754 24.7477 25.4054 20.6657 25.6004C4.55873 26.3674 6.78373 39.1764 6.78373 39.1764C15.0667 41.0164 16.6777 43.5474 14.6837 46.0014C12.6897 48.4554 8.85473 46.1554 8.85473 46.1554C8.85473 46.1554 9.08473 48.3794 5.17373 49.6834C1.26273 50.9874 2.56573 41.8594 2.56573 41.8594C2.56573 41.8594 -0.119268 37.6424 0.877732 29.8964C2.54573 16.9644 14.2987 11.8714 24.8827 9.87742C26.657 9.53113 28.4622 9.36861 30.2697 9.39242C37.5427 9.53742 41.6297 13.3494 41.0697 18.5434C40.6637 22.2594 38.4657 23.9294 30.6777 24.8594Z" stroke="white" stroke-opacity="0.6" stroke-linecap="round" stroke-linejoin="round"/>
<path d="M26.0297 16.8595C26.0297 16.8595 19.3297 16.5065 11.3087 22.0695C1.72473 28.7155 6.78373 39.1695 6.78373 39.1695" stroke="#2C3939" stroke-linecap="round" stroke-linejoin="round"/>
<path d="M26.0297 16.8595C26.0297 16.8595 19.3297 16.5065 11.3087 22.0695C1.72473 28.7155 6.78373 39.1695 6.78373 39.1695" stroke="white" stroke-opacity="0.6" stroke-linecap="round" stroke-linejoin="round"/>
<path d="M32.9637 13.7493C33.516 13.7493 33.9637 13.3016 33.9637 12.7493C33.9637 12.197 33.516 11.7493 32.9637 11.7493C32.4114 11.7493 31.9637 12.197 31.9637 12.7493C31.9637 13.3016 32.4114 13.7493 32.9637 13.7493Z" fill="#2C3939"/>
<path d="M32.9637 13.7493C33.516 13.7493 33.9637 13.3016 33.9637 12.7493C33.9637 12.197 33.516 11.7493 32.9637 11.7493C32.4114 11.7493 31.9637 12.197 31.9637 12.7493C31.9637 13.3016 32.4114 13.7493 32.9637 13.7493Z" fill="white" fill-opacity="0.6"/>
<path d="M32.9877 21.8113C33.54 21.8113 33.9877 21.3636 33.9877 20.8113C33.9877 20.259 33.54 19.8113 32.9877 19.8113C32.4354 19.8113 31.9877 20.259 31.9877 20.8113C31.9877 21.3636 32.4354 21.8113 32.9877 21.8113Z" fill="#2C3939"/>
<path d="M32.9877 21.8113C33.54 21.8113 33.9877 21.3636 33.9877 20.8113C33.9877 20.259 33.54 19.8113 32.9877 19.8113C32.4354 19.8113 31.9877 20.259 31.9877 20.8113C31.9877 21.3636 32.4354 21.8113 32.9877 21.8113Z" fill="white" fill-opacity="0.6"/>
<path d="M44.3777 34.6033L42.4257 27.4443C42.3765 27.2638 42.2735 27.1026 42.1305 26.982C41.9875 26.8614 41.8112 26.7872 41.625 26.7692C41.4388 26.7512 41.2515 26.7902 41.0881 26.8811C40.9246 26.9721 40.7926 27.1106 40.7097 27.2783L36.4257 35.9303" stroke="#2C3939" stroke-linecap="round" stroke-linejoin="round"/>
<path d="M44.3777 34.6033L42.4257 27.4443C42.3765 27.2638 42.2735 27.1026 42.1305 26.982C41.9875 26.8614 41.8112 26.7872 41.625 26.7692C41.4388 26.7512 41.2515 26.7902 41.0881 26.8811C40.9246 26.9721 40.7926 27.1106 40.7097 27.2783L36.4257 35.9303" stroke="white" stroke-opacity="0.6" stroke-linecap="round" stroke-linejoin="round"/>
<path d="M47.5457 48.8594L48.9307 56.1504C48.9651 56.334 48.9429 56.5236 48.8671 56.6943C48.7913 56.865 48.6654 57.0086 48.5061 57.1062C48.3469 57.2038 48.1618 57.2507 47.9753 57.2407C47.7887 57.2307 47.6097 57.1644 47.4617 57.0504L40.1987 51.4504" stroke="#2C3939" stroke-linecap="round" stroke-linejoin="round"/>
<path d="M47.5457 48.8594L48.9307 56.1504C48.9651 56.334 48.9429 56.5236 48.8671 56.6943C48.7913 56.865 48.6654 57.0086 48.5061 57.1062C48.3469 57.2038 48.1618 57.2507 47.9753 57.2407C47.7887 57.2307 47.6097 57.1644 47.4617 57.0504L40.1987 51.4504" stroke="white" stroke-opacity="0.6" stroke-linecap="round" stroke-linejoin="round"/>
<path d="M34.5617 52.3174L37.8947 44.4014L32.3407 37.0044" stroke="#2C3939" stroke-linecap="round" stroke-linejoin="round"/>
<path d="M34.5617 52.3174L37.8947 44.4014L32.3407 37.0044" stroke="white" stroke-opacity="0.6" stroke-linecap="round" stroke-linejoin="round"/>
<path d="M32.3457 37.0045C34.9337 36.3805 38.1707 35.7665 42.2017 35.0935C58.1017 32.4395 54.3927 19.9815 54.3927 19.9815C45.9457 19.1265 44.0457 16.8025 45.7457 14.1305C47.4457 11.4585 51.5157 13.2935 51.5157 13.2935C51.5157 13.2935 51.0217 11.1115 54.7527 9.35947C58.4837 7.60747 58.2617 16.8225 58.2617 16.8225C58.2617 16.8225 61.4227 20.6955 61.3427 28.5055C61.2087 41.5435 50.1307 47.9815 39.8547 51.2055C38.1333 51.7575 36.3596 52.1308 34.5617 52.3195C27.3227 53.0295 22.8157 49.7245 22.7617 44.4995C22.7287 40.7645 24.7157 38.8435 32.3457 37.0045Z" stroke="#2C3939" stroke-linecap="round" stroke-linejoin="round"/>
<path d="M32.3457 37.0045C34.9337 36.3805 38.1707 35.7665 42.2017 35.0935C58.1017 32.4395 54.3927 19.9815 54.3927 19.9815C45.9457 19.1265 44.0457 16.8025 45.7457 14.1305C47.4457 11.4585 51.5157 13.2935 51.5157 13.2935C51.5157 13.2935 51.0217 11.1115 54.7527 9.35947C58.4837 7.60747 58.2617 16.8225 58.2617 16.8225C58.2617 16.8225 61.4227 20.6955 61.3427 28.5055C61.2087 41.5435 50.1307 47.9815 39.8547 51.2055C38.1333 51.7575 36.3596 52.1308 34.5617 52.3195C27.3227 53.0295 22.8157 49.7245 22.7617 44.4995C22.7287 40.7645 24.7157 38.8435 32.3457 37.0045Z" stroke="white" stroke-opacity="0.6" stroke-linecap="round" stroke-linejoin="round"/>
<path d="M37.8947 44.4014C37.8947 44.4014 44.5887 43.9644 51.9027 37.5014C60.6397 29.7774 54.3877 19.9854 54.3877 19.9854" stroke="#2C3939" stroke-linecap="round" stroke-linejoin="round"/>
<path d="M37.8947 44.4014C37.8947 44.4014 44.5887 43.9644 51.9027 37.5014C60.6397 29.7774 54.3877 19.9854 54.3877 19.9854" stroke="white" stroke-opacity="0.6" stroke-linecap="round" stroke-linejoin="round"/>
<path d="M31.4917 50.3003C32.044 50.3003 32.4917 49.8526 32.4917 49.3003C32.4917 48.748 32.044 48.3003 31.4917 48.3003C30.9394 48.3003 30.4917 48.748 30.4917 49.3003C30.4917 49.8526 30.9394 50.3003 31.4917 50.3003Z" fill="#2C3939"/>
<path d="M31.4917 50.3003C32.044 50.3003 32.4917 49.8526 32.4917 49.3003C32.4917 48.748 32.044 48.3003 31.4917 48.3003C30.9394 48.3003 30.4917 48.748 30.4917 49.3003C30.4917 49.8526 30.9394 50.3003 31.4917 50.3003Z" fill="white" fill-opacity="0.6"/>
<path d="M30.5217 42.2964C31.074 42.2964 31.5217 41.8487 31.5217 41.2964C31.5217 40.7441 31.074 40.2964 30.5217 40.2964C29.9694 40.2964 29.5217 40.7441 29.5217 41.2964C29.5217 41.8487 29.9694 42.2964 30.5217 42.2964Z" fill="#2C3939"/>
<path d="M30.5217 42.2964C31.074 42.2964 31.5217 41.8487 31.5217 41.2964C31.5217 40.7441 31.074 40.2964 30.5217 40.2964C29.9694 40.2964 29.5217 40.7441 29.5217 41.2964C29.5217 41.8487 29.9694 42.2964 30.5217 42.2964Z" fill="white" fill-opacity="0.6"/>
<path d="M43.5457 6.35938C44.9264 6.35938 46.0457 5.24009 46.0457 3.85938C46.0457 2.47866 44.9264 1.35938 43.5457 1.35938C42.165 1.35938 41.0457 2.47866 41.0457 3.85938C41.0457 5.24009 42.165 6.35938 43.5457 6.35938Z" stroke="#2C3939" stroke-linecap="round" stroke-linejoin="round"/>
<path d="M43.5457 6.35938C44.9264 6.35938 46.0457 5.24009 46.0457 3.85938C46.0457 2.47866 44.9264 1.35938 43.5457 1.35938C42.165 1.35938 41.0457 2.47866 41.0457 3.85938C41.0457 5.24009 42.165 6.35938 43.5457 6.35938Z" stroke="white" stroke-opacity="0.6" stroke-linecap="round" stroke-linejoin="round"/>
<path d="M18.9647 53.9453L15.2687 57.6403" stroke="#2C3939" stroke-linecap="round" stroke-linejoin="round"/>
<path d="M18.9647 53.9453L15.2687 57.6403" stroke="white" stroke-opacity="0.6" stroke-linecap="round" stroke-linejoin="round"/>
<path d="M15.2687 53.9453L18.9647 57.6403" stroke="#2C3939" stroke-linecap="round" stroke-linejoin="round"/>
<path d="M15.2687 53.9453L18.9647 57.6403" stroke="white" stroke-opacity="0.6" stroke-linecap="round" stroke-linejoin="round"/>
<path d="M52.5457 52.9913C53.1709 52.9913 53.6777 52.4845 53.6777 51.8593C53.6777 51.2341 53.1709 50.7273 52.5457 50.7273C51.9205 50.7273 51.4137 51.2341 51.4137 51.8593C51.4137 52.4845 51.9205 52.9913 52.5457 52.9913Z" fill="#2C3939"/>
<path d="M52.5457 52.9913C53.1709 52.9913 53.6777 52.4845 53.6777 51.8593C53.6777 51.2341 53.1709 50.7273 52.5457 50.7273C51.9205 50.7273 51.4137 51.2341 51.4137 51.8593C51.4137 52.4845 51.9205 52.9913 52.5457 52.9913Z" fill="white" fill-opacity="0.6"/>
</svg>
