<svg width="27" height="23" viewBox="0 0 27 23" fill="none" xmlns="http://www.w3.org/2000/svg">
<path d="M15.2274 0.563721C20.673 0.650849 25.3779 4.7459 26.0314 10.3221C26.7284 16.334 22.4156 21.8231 16.3601 22.4766C15.9245 22.5202 15.5324 22.5637 15.0968 22.5637H14.9661C11.176 22.5637 7.73438 20.2984 5.94824 16.9004L0.894775 19.8192C0.894775 14.5479 3.16012 5.92214 9.38982 2.13204C9.43339 2.13204 9.43339 2.08847 9.47695 2.08847C9.52052 2.08847 9.52052 2.04491 9.56408 2.04491C10.8274 1.34788 12.2651 0.825107 13.8334 0.650849C14.269 0.607285 14.6611 0.563721 15.0968 0.563721H15.2274Z" fill="#0050FF"/>
</svg>
