<svg width="37" height="36" viewBox="0 0 37 36" fill="none" xmlns="http://www.w3.org/2000/svg">
<path d="M14 21C14.8284 21 15.5 20.3284 15.5 19.5C15.5 18.6716 14.8284 18 14 18C13.1716 18 12.5 18.6716 12.5 19.5C12.5 20.3284 13.1716 21 14 21Z" fill="#2EA4AB"/>
<path d="M24.5 19.5C24.5 20.3284 23.8285 21 23 21C22.1716 21 21.5 20.3284 21.5 19.5C21.5 18.6716 22.1716 18 23 18C23.8285 18 24.5 18.6716 24.5 19.5Z" fill="#2EA4AB"/>
<path fill-rule="evenodd" clip-rule="evenodd" d="M18.5 33C26.7842 33 33.5 26.2842 33.5 18C33.5 9.71573 26.7842 3 18.5 3C10.2157 3 3.5 9.71573 3.5 18C3.5 26.2842 10.2157 33 18.5 33ZM18.5 30C25.1275 30 30.5 24.6275 30.5 18C30.5 16.7456 30.3076 15.5361 29.9506 14.3996C28.6987 14.7383 27.3818 14.9191 26.0228 14.9191C20.4382 14.9191 15.5663 11.8671 12.9842 7.34001C9.13204 9.33729 6.5 13.3613 6.5 18C6.5 24.6275 11.8726 30 18.5 30Z" fill="#2EA4AB"/>
</svg>
