<svg 
          width="20.36363983154297" 
          height="32" fill="none" 
          xmlns="http://www.w3.org/2000/svg">
          <path d="M 14.545455932617188 23.272727966308594 L 20.36363983154297 23.272727966308594 L 20.36363983154297 10.181818644205729 C 20.36363983154297 4.558560689290364 15.80509312947591 0 10.181819915771484 0 C 4.558561325073242 0 0 4.558560689290364 0 10.181818644205729 L 0 23.272727966308594 L 5.8181826273600254 23.272727966308594 L 5.8181826273600254 27.63636525472005 C 5.8181826273600254 30.046401818593342 7.7717831929524746 32 10.181819915771484 32 C 12.591856638590494 32 14.545455932617188 30.046401818593342 14.545455932617188 27.63636525472005 L 14.545455932617188 23.272727966308594 Z M 17.454547882080078 20.363637288411457 L 17.454547882080078 10.181818644205729 C 17.454547882080078 6.1652075449625645 14.198402404785156 2.909090995788574 10.181819915771484 2.909090995788574 C 6.165208498636882 2.909090995788574 2.9090913136800127 6.1652075449625645 2.9090913136800127 10.181818644205729 L 2.9090913136800127 20.363637288411457 L 8.727273941040039 20.363637288411457 L 8.727273941040039 27.63636525472005 C 8.727273941040039 28.439710696538288 9.378474394480387 29.090909322102863 10.181819915771484 29.090909322102863 C 10.985165437062582 29.090909322102863 11.636365254720051 28.439710696538288 11.636365254720051 27.63636525472005 L 11.636365254720051 20.363637288411457 L 17.454547882080078 20.363637288411457 Z" fill="rgb(45.60781270265579,163.61016154289246,171.14219337701797)"/>
        </svg>